<svg xmlns="http://www.w3.org/2000/svg" viewBox="0 0 692.9 1788.5"><defs><style>.cls-1{fill:#1d1d1b;}.cls-1,.cls-2{stroke:#fff;stroke-linecap:round;stroke-linejoin:round;stroke-width:5.76px;}.cls-2{fill:none;}</style></defs><g id="Shape"><path class="cls-1" d="M525.5,1187.6c18.9-8.4,40.1-10.6,58.9-19.2,8.5-4,17.2-10.1,19.4-19.4.6-2.7.6-5.7,1.5-8.4,2.1-6.8,8.7-10.9,14.8-14.6,16.2-9.6,32.3-19.8,45.5-33.3s23-31,24.3-49.8a23.8,23.8,0,0,0-.7-9.2c-1-3.3-3.2-6.2-4.1-9.5s.2-9.5,1.3-14.1a123,123,0,0,0-5.5-73.2c-1.5-3.7-3.5-7.6-7.2-9.1-5.6-2.1-11.7,3-13.4,8.7-4.9,16.6.1,32.5-15.1,45.3s-32,14.6-51.3,20.6-34.8,18.4-53.8,17.8a9.1,9.1,0,0,1-4.3-1c-2.9-1.6-3.6-5.8-2.3-8.9,9.5-23.6,46.5-41.1,66.9-53.4,5.6-3.4,11.5-6.7,15.2-12.1s4.2-13.6-.7-17.9c5.9-16.2,23.7-24.1,36.4-35.8,7.2-6.7,12.9-14.9,17.7-23.5A141.4,141.4,0,0,0,683.2,830l-10.2-.6a127.3,127.3,0,0,0,2.8-94.2c-2.2-6.1-7.1-13.2-13.4-11.6-2.2.5-4,2.1-5.6,3.8-9.9,10.5-12.7,26.1-22,37.2s-30.4,15.6-42.1,20.6c-34.3,14.5-58.6,28.4-92.9,43,14.5-30.7,63-45.4,89.8-63.6a308.2,308.2,0,0,0,53.4-46l-3.9-6A97.9,97.9,0,0,0,667,668.1a38.1,38.1,0,0,1-16.1-.8c5-25.2,9.8-54.3,4.2-79.8-1.2-5.4-4-10.4-6.2-15.4s-4.8-9.4-9.5-9.5-7.7,4.8-9.6,9c-7.5,16.8-12.5,35-22.7,50.5-3.2,4.9-7.3,13.3-11.7,17.1-2.5,2.2-20,5.3-18.5,2.3,4.4-8.4,14.3-15.6,20.5-22.8,21.7-25.2,32.2-56.9,34.7-90,1.2-15.6-12.1-10.9-18.8-2.6s-11.8,20.2-22.6,27.9c-2.9,2-6.1,3.9-9.5,4.2s-7.4-1.4-8.7-4.6c-4.7-11.7,17-17.4,23-23.4s9.3-14.2,13.5-21.6,10.5-14.7,18.9-16.1,23,3.6,27.9-5c1.9-3.4,1.3-7.6.2-11.3-5.5-18.8-24.7-32.6-44.3-32a242.8,242.8,0,0,0-3.6-123.5l-14.3,12.6c-2.2-19.2-5.3-42.6-14.3-60-2.7-5.3-27.9-34.4-27-36.7-1.5,3.7-3,7.4-4.8,10.9-7-11.4-27.4-9.4-29.5-23.6-1.3-8.4,2.7-16.5,4.3-24.8,4.1-21.7-11.1-45.2-32.5-50.4-3-.7-6.2-1.2-8.6-3-5.4-4-4.8-12.4-8.8-17.8-2.3-3.2-6.2-5.2-8-8.7s-1.1-7.8-1.5-11.8c-1-8.4-7.1-15.2-13-21.4s-9.9-10.5-14.9-15.7c-8.4-9-16.9-18-26.2-26.1A194.4,194.4,0,0,0,349.2,8.9C338.6,5,302-6.6,314.7,18.8c3,5.9,7.4,11.1,10.4,17A44.8,44.8,0,0,1,326.3,74c-4.5,10.4-12.8,18.6-18.2,28.4s-13.5,24.7-13.7,35.7c-.2,14,13.6,25.2,13.4,39.7-2.9,1.4-5.7-2-7.1-4.9L295.3,162c-2.5-5-5.7-10.5-11.2-11.5s-9.1,2.3-11.6,6.3c-8.4,13.7-11.4,38.7-11.8,54.4-.2,4.6,0,9.3-.7,13.8-1.9,11.7-3.4,23.3,1.1,34.6s11.6,21,14.7,33.4c-4.5,1.7-9.1-2.1-11.6-6.1-4.8-7.6-10.8-13.2-16.3-20.2-.5-.7-15.4-21.8-16.7-17.3-8.7,27.7-13.9,57.5-6.8,85.6,3.3,13.2,9.5,24.7,16.2,36.4,2,3.4,12.3,24.3,15,24.9-16.6-3.7-27.4-13.4-31.1-31.3-1.3-6.9-1.5-14.7-6.3-19.9s-14.1-5.8-20.7-2.2-11.1,10.2-14,17.1c-11,25.6-4.8,55,2,82.1,3.4,13.1,7.5,27.2,18.4,35.2s21.8,8.3,30.2,18c3,3.4,4,9.6,0,11.8a8.5,8.5,0,0,1-3.9.7c-30,.9-58.1-25.8-58.8-55.9-.1-6.7.9-13.5,0-20.2s-4.3-13.6-10.5-16.1c-14.4,16.9-20.8,39.5-21.7,61.7s3.6,44.2,9,65.8c-5.1.6-10.3,1.2-14.8,3.6s-8.2,7.2-7.7,12.3,5.1,9.6,9.2,13.3c19.7,18.1,30.6,43.6,40.9,68.2,1.1,2.5,2.1,5.3.9,7.7-2.5,4.8-10,1.8-13.3-2.5-6.3-8.5-7.8-19.5-11.8-29.3-1.2-3-2.8-6.1-5.7-7.6-5.6-3-12.3,1.6-16.1,6.6-9.1,12.1-11.3,26.9-9.8,41.4.2,2.2.4,4.6-.8,6.5-2.1,3.5-7.2,3.2-11.1,1.9-8.4-2.7-15.9-7.8-24.5-9.9s-19.4.3-22.9,8.4c-2.5,5.7-.5,12.6,3,17.9s8.4,9.5,12.2,14.5c12.4,16.4,12.7,38.7,15.4,59.1a210.8,210.8,0,0,0,27.1,78.6c2,3.4,4.2,7.2,3.2,10.9s-6.2,6.9-10.8,6.6-8.7-2.5-12.9-4.4a100.9,100.9,0,0,0-61.3-7.2c-3.8.8-7.8,1.9-10.5,4.6C19.2,851,24,863.4,31.9,869s17.9,7.6,25.8,13.1c12.8,8.9,18,25,26.8,37.9,9.9,14.5,24.3,24.6,37.9,35.4,10.4,8.2,34.3,23.9,33.1,39.1-6.5.6-12.6-2.9-18.2-6.3-22.8-13.6-47.3-29.1-56.4-54.1-2.2-5.7-3.4-11.8-6.5-17s-8.9-9.6-15-8.6c-7.7,1.2-11.6,9.8-13.2,17.4a95.4,95.4,0,0,0,11.7,68.9c3.5,5.7,7.7,11.4,7.7,18.1,0,3.8-1.5,7.6-1.4,11.4.2,5.4,3.4,10.2,6.6,14.5a174.4,174.4,0,0,0,47.6,43c8,4.8,17.2,10.2,18.9,19.3-17-1.2-34.1-2.4-50.4-7.2s-32-13.5-42.2-27.1c-8.8-11.8-13.4-27.2-25.4-35.8a7,7,0,0,0-4.7-1.7c-2.6.3-4.1,3.1-5,5.6a103.9,103.9,0,0,0-4,60.4c1,4.3,2.2,8.6,2,13s-2.9,10-3,15.2,2.1,10.5,4.7,15.2a105.7,105.7,0,0,0,27.3,31.8l-23.8,4.3c-5.2,3.4-2,11.6,2,16.5a146.7,146.7,0,0,0,46.5,37.8c28.2,14.5,93.9,24.3,98.9,63.6-16.8,6.3-34.1-8.8-52.1-9.7-10.3-.5-21.5,3.6-30.5-1.4-11.6-6.4-12.9-24.2-24.7-30.3-2.3-1.2-5.1-1.8-7.5-.7s-3.8,3.8-4.7,6.4a52.2,52.2,0,0,0,4.8,45.5c1.1,1.6,2.3,3.3,2.5,5.3s-.9,4.4-2,6.4c-3.4,6.2-7.1,12.4-8.2,19.4s.7,14.9,6.5,19,11,3.6,16.7,4.7c17.5,3.5,32.2,18.3,35.5,35.8-11.1.6-22.6,1.2-32.6,6.1s-18.2,15.4-17,26.5a169,169,0,0,1,85.7,62.5c-10.4,3.4-20.9,7-30.1,13.1s-16.9,15-19,25.8c-.5,2.7-.5,6,1.6,7.8s3.1,1.5,4.8,1.8c20.8,3.1,44.2,2.8,59.6,17.3-4.5,4.3-11.1,5.7-16.3,9.2-25.2,16.6,21.9,22.3,30.5,25.8,22.4,9.1,2.9,26.4,10.9,42.2a34.2,34.2,0,0,0,26.5,18.1c7.1.7,15.8-.2,19.8,5.8s1.3,10.6-.8,15.6c-9.1,22.2-23.8,41.4-37.4,60.9-7,10-13.9,20.1-19.6,30.9-17.5,32.7,17.6,24.1,37.1,14.2,26.1-13.2,47.5-35.5,61.1-61.3,9.4-17.9,18.1-39.8,37.6-45.4,6.1-1.7,12.6-1.6,18.9-2.8s12.7-4.5,15-10.5.7-9.9,1-14.9,3-10.8,8-11.2c3-.2,5.7,1.7,8.5,2.8a18.3,18.3,0,0,0,18.6-3.4c3.4-3.1,5.9-7.7,10.4-9.1,8.9-2.7,16.3,9.5,25.6,8.7s11.9-13.1,7.4-20.5-13.3-10.8-21.5-13.8c-2.1-7.8,7.4-13.3,15.1-15.8l70.3-22.4c3.4-1.1,7.5-3.1,7.5-6.7-.1-1.7-1.2-3.2-1.9-4.8-2.8-6.5,1-14.4,6.8-18.4,10.6-7.3,24.3-5.2,35.6-11.6s21.1-16.2,24.1-29.2c1.2-5.2,1.5-11.1,5.6-14.6s10.3-2.8,15.6-4.1c7.2-1.8,12.8-7.2,17.5-12.8a142.2,142.2,0,0,0,33-78.7c.7-7.8.9-16.1,5.1-22.8,9.4-14.9,21.4-19.6,8.6-37.3-5-6.8-10.1-13.8-17.4-17.9-2.6-1.5-5.7-2.7-6.9-5.5s.8-7.5,3.9-9.5,7-2.6,10.6-3.8c15-5,24.6-19.5,33-33,3.4-5.6,7-11.4,7.9-17.9s-1.4-14-7.3-17c-2.1-1.1-4.9-2-5.3-4.3s.7-3,1.6-4.2c6.7-9.4,13.5-18.7,20.3-28,5.4-7.4,10.2-19.1,2.7-24.3s-16.2,2.6-23.7,7.3c-2.2,1.3-5.3,2.3-7.1.5s-1.2-3.7-1.7-5.7-3.3-3.6-4.4-1.9c-18.4,10.6-31.8,28.4-52.4,33.6-8.6,2.2-15.8,5.2-24.7,6-20.5,2-39.1,14.3-59.7,15.7C500.6,1197.1,519.3,1190.4,525.5,1187.6Zm4.9-347.1a50.8,50.8,0,0,0,2,35c3.3-13.4,6.7-27.1,13.9-38.9s19.1-21.6,32.8-22.9a38.6,38.6,0,0,0-7.6,31.8,80.1,80.1,0,0,1,41-41.4c9.9-4.3,20.7-6.6,30.5-11.4s18.8-13,20.5-23.7c2.5,24.2-9.1,49.4-29.2,63.3-10.9,7.6-23.7,11.8-35.9,17.1-44.4,19.1-81.6,52.4-111.7,90.2-28.2,36.3-48.9,75.3-71,115.1,4.6-33.7,3.8-68.8,10.9-101.9a48.6,48.6,0,0,1,2.7-9.2c1.5-3.6,3.9-6.7,6.3-9.8l35-46a86.4,86.4,0,0,0,2.9,41.3c2-11.1,4-22.1,5.9-33.2,1.1-6,2.2-12.1,5.2-17.4s6.2-7.8,9.9-11.1A235.1,235.1,0,0,1,530.4,840.5Zm53.1-173.4A97.9,97.9,0,0,0,635.8,614c3.7,17.7-1.6,36.5-11.5,51.6s-24.1,26.9-39.2,36.8a156.6,156.6,0,0,1-26.9,14.8c-8.5,3.6-17.4,6.1-26,9.4-10.8,4.3-21.1,9.9-31.3,15.4,6.8-20,27.2-32.5,35.8-51.8,1.5-3.4,10.4-15.3,14.1-14.9-2.7,10.9-5.3,21.9-7.9,32.9l22.4-28a40.4,40.4,0,0,1,7.3-7.6C575.8,670.1,579.8,668.7,583.5,667.1ZM511.8,258a18.1,18.1,0,0,0,18.6,6.8c-2.1,6.4-4.2,12.9-6.2,19.3a86.2,86.2,0,0,1-5.1,13.4,33.4,33.4,0,0,1-13.8,15.2c-6.1,3.3-13.9,3.9-20.1.8A149.4,149.4,0,0,0,511.8,258ZM413.9,410.3c.6-7.7,6.4-14.7,7.4-22.1-.5,3.5-.7,7.3.7,10.6s5.2,5.9,8.6,4.8a10.1,10.1,0,0,0,4.6-3.3l13.7-14.1a63.7,63.7,0,0,0-3.3,19.4L475,384.5c-8.1,10.7-14.1,21.8-21.3,32.9-.7,1.1-1.5,2.4-1.1,3.6.9,2.7,5.1,1.1,7.1-1,16-16.4,29.7-35.8,49.6-47.1s43.7-13.8,61.9-27.2c-20.5,37.9-79.3,40.9-99.9,78.8a348.4,348.4,0,0,1,78.1-43.8c-3.3,10.6-13.3,17.4-22.3,23.8A369.7,369.7,0,0,0,450.2,478c-3.8,4.9-7.6,10.4-7.2,16.5,4.5-.6,8-4,11.2-7.2,30.3-30.9,63-61.1,103.2-77.1,7.2-2.9,14.7-5.4,20.6-10.3s11.1-14.8,14.6-23.4c8,9.9,2.6,25.5-7.3,33.5-11.7,9.6-26.3,11.2-39.8,16.5s-28,16.7-35.5,28.9L561.9,431c5.6-2.6,10.9-4.6,17.2-5.1,2-.2,4.4.5,5.1,2.3s-1.3,4.6-3.3,6.2q-26.2,21.2-53.1,41.7c-14.1,10.8-24.9,24.2-37.4,36.9-8.1,8.2-16.5,16.2-23.6,25.3-1.8,2.3-8.1,7.6-8.8,9.9-4.1,13.1,12,2.8,15-.4,6.6-7,12.6-14.8,19.3-21.5,15.2-15.4,34.3-29,51.7-41.7-1.3,3.2-2.5,6.5-3.7,9.7a180.6,180.6,0,0,0,25.2-4.8c-7.7,2.1-15.9,13-22,18s-15.1,10.4-22.5,15.6c-14,9.7-28.1,20.7-34.5,37.1,20.3-28.4,57.3-38.8,83.6-61.7,8-6.9,15-15,23.4-21.3s19.1-10.9,29.6-9.3c-16.7,3.3-24.9,21.6-36.4,34.1-16.3,17.7-40.6,29.9-59.5,45-20.6,16.5-40.3,34.5-57.3,54.7a171.2,171.2,0,0,1,68.8-44.6c-33.5,24.2-67.1,51-85.7,87.9,24.3-27.3,50.6-55.8,85.7-65.7A238.5,238.5,0,0,0,449,686.9a201.7,201.7,0,0,1,83.4-70.8,38.9,38.9,0,0,0-30.1,11.3c5.4-5.5,7.9-13.2,14.3-18.4s14-10.3,22.1-11.8c17.9-3.3,28.7-4.4,44.8-14.7,7.7-4.9,24.7-19.1,26-22.2-2.4,5.5-5.9,17.8-9.5,23s-6.8,10.7-12.2,15.6c-11.6,10.3-24.5,19-37.5,27.4l-35.8,23.5c-25.1,16.5-53.4,29.4-61.8,60.9,9.6-8.9,16.3-19.3,26.1-28s23.9-14.3,33.5-23.2c-20.2,19.2-41.5,40.4-46.4,67.9,19.3-29.1,41.2-60.2,74.5-70.4l-55.2,78.2c-15.9,22.4-31.9,45.1-41.6,70.8-5.1,13.6-8.4,27.8-11.6,41.9a632.7,632.7,0,0,1-2.5-86c.8-19,2.4-38,2.8-57s-.3-36.3-1.1-54.5c-1.9-45.9-3.8-91.8-7.1-137.6q-2.4-34.3-6.1-68.5C416.8,433.6,413.1,420.9,413.9,410.3ZM217.3,429.8c-7.3-3-14-8.1-17.5-15.2a48.6,48.6,0,0,1-3.5-11.8c1.6-.2,2.7,1.3,3.6,2.6a30.9,30.9,0,0,0,19.5,12.1c2.8-6.5-2.7-15.5,2.4-20.5a69.2,69.2,0,0,0,34.4,33.5c4.7,2.1,10.2,4.2,11.9,9l-27.7-4.2C232.5,434.1,224.6,432.9,217.3,429.8ZM169.5,695.3c12.3,10.3,27.3,16.7,41.4,24.4s26.6,18.8,38.1,30.2c-8.5-8.5-15-19.4-23.6-28.1s-17-12.8-26.1-18.4c-11.4-7.1-22.4-15.5-29.5-27.1,11-1,22.7-1.8,32.6,3.3,14.8,7.6,20.4,25.9,32.4,37.5,4.8,4.5,10.6,8,15.7,12.1,9.4,7.4,18.4,17.6,30.3,17.4a315.3,315.3,0,0,1-25.6-23.5c-16-16.7-29.6-35.5-43.1-54.3l47.1,26.7c-8.5-11.4-20.1-20.1-31.6-28.6l-25.8-19.1a109.3,109.3,0,0,1,42.8,17.5c9.5,6.5,18.5,14.7,29.8,16.6-3.9-6.7-7.2-15.1-12.6-20.6s-13.8-8.9-20.4-12c-13.6-6.6-28.1-11.8-40.4-20.8a79.3,79.3,0,0,1-29.6-42.6,146.4,146.4,0,0,0,73.3,46.4,53.1,53.1,0,0,0-25.9-19.9,80.5,80.5,0,0,1,41.4,13.2c-12.2-13.9-25.1-27.7-41.1-37-9-5.2-19-9-27.8-14.7s-16.6-14.2-18.1-24.6c7.8,11.8,21.6,17.8,34.1,24.5A215.7,215.7,0,0,1,261,614.5c-1.7-8.8-10.6-18.2-17-24.2-19.8-18.4-45.9-29.3-63.9-49.4A89.6,89.6,0,0,1,158,472.3a75.8,75.8,0,0,0,35.2,46c9.5,5.4,20.2,8.8,29,15.5,14.3,11,21,29,27.1,46a71.3,71.3,0,0,0-4.9-35.4,94.9,94.9,0,0,1,38.3,64c.7,5.3,1,10.8,3.3,15.6s7,9,12.3,8.5c3.1-.3,7.2-1.6,8.5,1.2a89.9,89.9,0,0,0,7.4,22.3c-10.6,5.4-25.5,2.7-26.1,18.2-.2,4.4,1.9,9,5.7,11s10.7.7,16-.1a38.7,38.7,0,0,1,31.4,9.5c-17.4-5.4-37,2.2-51.2,12.4-6.7,4.8-16.9,22.7-1.1,23.8,3.8.2,6.9-2.6,9.6-5.2,7.8-7.5,16.4-14.9,27-17.3s23.5,2.5,26.7,12.8a62.8,62.8,0,0,0-18,5.1c-.1,3.4,5.5,4.6,5.6,8.1s-2.8,3.9-5.3,4.1-5.3.1-7,1.9-1.7,4.9-3.6,6.7a6.3,6.3,0,0,1-2.7,1.4c-9.8,3.7-19.9,7-29,12.2-15.6,8.7-23.8,22.8-28.4,39.6-3.1,11.4-2.5,23.7.5,35.1-20.5-20.2-19.7-55.4-40.5-75.2l31.1,16.6c-10.3-16.6-25.9-29-41.8-40.3s-32.7-21.6-46.4-35.5-24.4-31.8-24.8-51.3A82.7,82.7,0,0,0,169.5,695.3Zm-29.6-.5c3.9,14.4,18,22.9,30,31.7a178.9,178.9,0,0,1,29.6,27.4c7.6,8.9,14.4,18.7,17.8,29.8,4.2,13.7,3,28.3,1.8,42.5-4.6-12.9-11.6-25.6-24.9-30.7a21.7,21.7,0,0,1-6.6-3.9c-3.6-3.2-5.7-7.3-9.4-11.7-5.9-7.2-13.4-13-19.6-20A79.6,79.6,0,0,1,139.9,694.8Zm-24.5,47.9c-1.7-15.1.4-31.6-7.9-44.4,17.6,14.8,17.1,42.5,30.7,61.1,2.9,3.9,6.6,7.7,7.3,12.5.4,2.9-.3,5.7-.6,8.6-.7,7.1,1.1,14.1,2.9,21A87.9,87.9,0,0,1,115.4,742.7ZM84.7,885.6a75.3,75.3,0,0,0-17.9-23.3A55.9,55.9,0,0,1,101.5,886,72.7,72.7,0,0,1,84.7,885.6Zm40.7,175.1a57.8,57.8,0,0,0,28.6-2.4l-31.9-10.6c-9.8-3.3-19.9-6.8-27.9-13.5a39.9,39.9,0,0,0,24.4-1.4c-32.1-15.8-55.2-49.4-52-84.9,3.3,25.4,26.8,41.9,48.3,55.9s45.6,25.2,62.2,44.8a25,25,0,0,0-5.9-20.5,46.1,46.1,0,0,1,21.1,17.2,18.7,18.7,0,0,0-12.2,13.1c-4.7-4.3-12.9,1.1-13.4,7.5s3.5,12,7.3,17c-9,2.2-18.7-.3-26.8-4.8S132.2,1067.1,125.4,1060.7Zm191.5,366.7c-5.9,21.1-15.5,43.5-16.5,65.4-1.9,44.2-22.5,92.5-41,132.2-2.2,4.6-9,26.3-15,15.9a189.9,189.9,0,0,0-28.6-37.8,217,217,0,0,0-29.5-25.4c9.2-2.9,19,1.1,27.8,5a129.4,129.4,0,0,0-57.9-51.9c-9.5-4.3-19.7-7.6-27.4-14.6,9.3-5.2,21-4.8,31-1s18.4,10.7,26.3,17.9a248.8,248.8,0,0,1,52.6,69.2c1.3-16.4-3.8-32.8-11.7-47.2s-18.4-27.2-29.1-39.7c-14.5-17-29.2-33.9-45.6-49-7.7-7.1-16.5-12.9-24.3-19.7s-13.2-20.7-21.5-24.9a147.7,147.7,0,0,1,68.7,45.3c9.1,10.8,16.8,22.9,27.6,31.9-4.2-25-16.1-52.9-36.3-69.1-8.1-6.6-17.7-11-25.8-17.7-23.6-19.7-30.3-55.9-56.5-72.1,22-2.7,42.8,9.9,59.8,24.1a287.9,287.9,0,0,1,39.4,40.2c12.2,15.2,20.3,32.8,28.8,50.4a1035.4,1035.4,0,0,1,47,113.8c5.4-23.6-5.5-47.3-14.4-69.1-9.8-24.1-21.8-47.2-33.9-70.2-9.3-17.6-18.7-35.5-32.2-50.2-9.2-10-20.2-18.4-31.4-26.1-15.7-10.9-32.3-20.7-50.6-26.3-9.5-2.9-20.1-4.5-29.2-.3,9.5-18.6,35.2-24.5,54.7-16.9s33.2,25.4,42.4,44.2c-2.2-8.5-4.5-17-6.7-25.5,9.8,13,19.2,26.2,28.4,39.5-1.9-8.3-3.8-16.6-5.6-24.9l29.7,54.2a96.5,96.5,0,0,0-4.2-28.3c8.4,10.8,16.6,21.7,24.7,32.8,4.6,6.4,9.3,13.1,10.5,20.8.7,4.5.2,9,.9,13.4,1.6,11.2,9.9,20,17.1,28.6a215.6,215.6,0,0,1,25.7,39c3.9-.8,6.3-5.2,6.2-9.2-.2-10-6.2-22.8-9.1-32.3-3.5-11.9-7.2-23.8-10.9-35.6s-7.3-22.9-12.5-33.7-10.9-19.3-17-28.6L189.5,1284c-6.9-10.5-14.7-21.7-26.7-25.2l33.2,3a198.5,198.5,0,0,0-75.3-28.3,227,227,0,0,1,47-8.3c-16.7-11.9-39.4-8.8-59.9-7.7s-45.1-2.2-54.7-20.4a154.2,154.2,0,0,0,70.8-10.6l-37.6-8,17.8-9.2c-21.5-3.9-54.3-3.5-66.4-25.6a22.6,22.6,0,0,0,21-5,107.9,107.9,0,0,1-38.4-62A86,86,0,0,0,60,1108.2c16.3,6.2,34.1,7.4,50.2,14a78.9,78.9,0,0,1,37,31.7,36.1,36.1,0,0,0-4-24.1,93.5,93.5,0,0,1,29.6,32.6c2.5,4.8,4.7,9.8,8,14,4.9,6.3,12,10.6,18.9,14.6,9.5,5.7,19.2,11.3,30,13.8,7.6,1.7,15.7,1.9,22.4,5.9s10.6,14,5.2,19.5c-3.8,3.9-10,3.7-15.4,4.2a40.2,40.2,0,0,0-24.8,12.6,1219.2,1219.2,0,0,0-98.1-87.8c-9.5-7.5-19.3-15.1-30.8-18.9,5.9,6.2,11.6,12.7,17.8,18.6,8.8,8.3,17.2,16.2,26.6,23.7s20.2,16.7,29.9,25.5a547.1,547.1,0,0,1,53.7,57.1l2,2.4c2.4,3,4.8,6,8.1,7.7s9.2,2.2,12.8,5c-3.8,5.8-4.8,13.7-1.2,19.7s12.2,8.7,18,4.8c3.2-2.1,5.1-5.6,8-8s8.3-2.9,10,.5c2,10-12.1,18.4-9.2,28.1s20.6,8,25.9,17.3c2.2,3.8,1.7,8.6,3.4,12.7,3.7,8.9,18.9,9.2,23,.4l9.8,2.2C328.4,1381.6,323.2,1404.9,316.9,1427.4Zm12.4-442.6c-7.1,3.9-15.6,4-23.4,6.1s-14.1,5.9-20.8,9.7c-4.3,2.5-9.1,5.8-9.3,10.7s4.4,8.9,9,10.8a32.9,32.9,0,0,0,17.3,1.7c4.7-.8,9.2-2.7,13.9-2.9s10.1,2,11.4,6.6c-2.9,4.5-6.9,8.2-10.2,12.5s-6,9.5-5.6,14.9,4.9,10.7,10.3,10.4a64.1,64.1,0,0,0,.2,28.9c-5.2-4.9-14-6.3-16.5-12.9-1.9-5.1-1.8-10.4-8.3-10.7-1.5-.1-12.7,6.6-13.3,5.5a37.4,37.4,0,0,0-31.4-19.7c-3.3,0-6.8.3-9.6-1.4a15.4,15.4,0,0,1-4.4-4.4l-27-36.3c18.6,9.3,34.4,23.2,50,36.9-7.7-18.2-23.1-32.2-39.6-43.4s-34.2-20.3-50.1-32.2c24.9.5,46.8,15.8,66.9,30.5,9.7,7.2,19.4,14.3,28.5,22.2-11.2-25.3-36.6-44.6-61.1-56.8-17.8-9-37.1-14.4-56.3-19.7l31.4-6.1c-11.4-2.3-23.5-6.3-35.1-6.9-9.3-.5-16.5-1.1-25-6.2s-17.7-16.3-17.7-27.8c0-.5,0-1.1.4-1.4s1.4-.3,2.1,0c8.2,3.3,15.9,8.1,24.7,9.2s19.1-3.3,20.9-11.9c3.9.2,8,.5,11.7,1.9s7.2,4.1,8.4,7.9.4,7.4,2.3,10.5,2.9,2.9,4.1,4.6c10.3,15.7,16.6,39.4,40.5,31.1,2.3-.8,4.7-1.8,7.1-1.2s4.5,2.7,6.3,4.6c17.4,18.2,47,23.3,69.5,12,7-3.6,13.4-8.6,21.2-9.9,12.8-2.1,25.3,7.1,31.2,18.7a17.9,17.9,0,0,0-16.7-.9C334.4,981.3,332,983.3,329.3,984.8Zm253.6,428.6c-6.7,12.1-17.2,22.7-30.5,26.6a29.5,29.5,0,0,1,16.2,5c-9.6,6.6-22.4,4.9-34,6.6a57.1,57.1,0,0,0-38.9,25,49.1,49.1,0,0,0,30.2,3.7c-10.7,13-29.4,15.4-46.2,16.1-5.4.3-12.1.2-17.4,1.2s-11.5,7.1-15.8,7.6a18.2,18.2,0,0,1,15.7,6,80.9,80.9,0,0,0-38.9,18.2,30.8,30.8,0,0,1,26.7,12.1c-21.1-.1-43.6.3-61.3,11.8a18.5,18.5,0,0,1,18.7,6.4,118.5,118.5,0,0,0-57.9,27.7c-5,4.4-11.4,9.5-17.5,6.9,13.5-19.5,32.3-34.5,50.8-49.3,29.9-24,58.9-51.1,91.4-71.6,28.8-18.2,61.1-32.6,84.2-58.4-4.1,4.6-26.1,8-33,11.7-39.5,21.5-77.1,49.4-114.7,74.4-12.3,8.2-25.1,16.7-36.8,26-9.9,7.7-20.1,17.8-30,24.5-3.1-4.5-1-13,1.3-18.2a77,77,0,0,1,16-23.2c12.6-12.6,29.1-21.1,46.2-26.1s33.5-10.7,48.1-22.2c18.3-14.4,30.8-34,51.4-46,17.1-10,37.8-13.1,56.5-16.3,12.7-2.1,22.9-13.5,33.2-20.8C592.3,1390.4,588.8,1402.6,582.9,1413.4ZM489,1394.7c1.4-7.5,5.7-14.2,10.6-20,20.3-23.7,51.4-35.1,81.7-41.9,27.9-6.3-1.1,34.5-11.1,40.4s-27.1,7.9-39.6,12c-2.3.7-11.5,2.3-20.7,4S489.3,1393.3,489,1394.7Zm31.3-164.9a73.3,73.3,0,0,0-12.3,29.5,100.8,100.8,0,0,1,47.1-45.9,87.7,87.7,0,0,0-16.4,24.5c6.6-5.3,12.8-11.2,19.6-16.3,21.2-15.9,47.1-23.9,72.4-31.7-6.7,15.7-13.4,31.5-20.2,47.2a7.1,7.1,0,0,0-.7,3.5c.7,2.9,4.9,3,7.8,2.3l18.8-4.1c-7.6,18.1-29.4,24.5-48.6,28.7-30.2,6.7-58.7,8.1-72.6,39.9a157.9,157.9,0,0,1,83.8-1.1c-12.7,6.6-27.8,6.2-42.1,7.3a185,185,0,0,0-62.3,16.5,50.7,50.7,0,0,1,27.9,4.8,158.1,158.1,0,0,0-83.5,52.5c13-11.3,28.1-23.4,45.3-22.3-14.1,10.5-24.7,25.1-38.2,36.5-11.7,9.8-28.5,18.5-42.4,24.8a75.1,75.1,0,0,0,46.1,3.6c-6.9,8.8-19.7,9.5-30.9,9.4a37.8,37.8,0,0,1,15.2,16.7,73.4,73.4,0,0,0-47.7-6c4.8.5,9.7,1,14,3.2s8,6.3,8.1,11.1a71.3,71.3,0,0,0-43.2,10.3c-7.6,4.7-14.6,10.9-23.4,12.8,2.4-16.7,13.3-31,25.1-43,44.3-44.9,81.2-95.7,127.7-138.9,32.9-30.6,76.8-57.9,103.2-94.4-95.6,57.3-173.5,140.1-241.5,228.4,3.2-29.5,7.1-60.9,26-83.8,7.6-9.2,17.1-16.5,26.1-24.3a286.9,286.9,0,0,0,52.7-60.5,78.1,78.1,0,0,0-2.1,26.4A117.7,117.7,0,0,1,520.3,1229.8Zm-50.4-29.2c-6.4,6.2-13.5,11.6-20.3,17.4-21.6,18.2-40.2,39.7-56.9,62.4a353.3,353.3,0,0,1,71.8-56.6,377,377,0,0,1-98.7,111c.9-15.2,5-30.1,9.1-44.8,4.7-16.7,10.5-33.5,12.3-50.5,2.1-19.6,3.7-39.3,5.7-58.9.4-3.9.7-7.9,2.1-11.6a41.1,41.1,0,0,1,6.9-10.9,157.9,157.9,0,0,1,19.4-19.8,95.8,95.8,0,0,0,1.9,38.8c3.5-14,6.9-28,10.4-42,2.1-8.6,4.3-17.4,8.9-25s11.9-14.1,20.7-15.4a88.3,88.3,0,0,0-2.1,42.7c6.1-14.7,8.6-30.8,15.5-45.1s19.7-27.6,35.6-28.2c-8.2,15.5-16.5,32.7-12.6,49.7,7.3-15.4,14.8-31.1,25.3-44.6s24.6-24.9,41.2-29.2a84.2,84.2,0,0,0-14.8,35.6,192.9,192.9,0,0,1,29.9-30.7c4.7-3.9,9.7-7.7,15.5-10s11.5-3.2,17.3-4.7c27.9-7.2,51.2-30.1,58.7-57.9,3.2,33.9-18.6,65.7-45.7,86.2s-59.4,32.8-89.1,49.3a350.4,350.4,0,0,0-74,54.6c-11,10.6-22,21.8-31,34.1-4.1,5.4-8.6,11-12.1,16.8s-3.4,13.4-6.3,17.4c13.4-17.7,27.1-35.5,44.1-49.7s38-24.8,60.2-25.5C498.1,1164,485.9,1185,469.9,1200.6Z" transform="translate(0 0)"/></g><g id="Lines"><path class="cls-2" d="M277.9,1650.2c21.3-42,38.5-88.9,47.6-135.1" transform="translate(0 0)"/><path class="cls-2" d="M208.8,1743.1a331.4,331.4,0,0,0,48-73" transform="translate(0 0)"/><path class="cls-2" d="M335.2,1339.2a2221.1,2221.1,0,0,0,70.9-452.5" transform="translate(0 0)"/><path class="cls-2" d="M407.6,1120.7a230.6,230.6,0,0,1,5.2-37.8" transform="translate(0 0)"/><path class="cls-2" d="M527.3,1140a73.8,73.8,0,0,1,41.9,1.7" transform="translate(0 0)"/><path class="cls-2" d="M558.8,1118.9a94.6,94.6,0,0,0,59.9-14.7" transform="translate(0 0)"/><path class="cls-2" d="M621.3,1084.3c9.7-2.6,19.5-5.3,28.1-10.5" transform="translate(0 0)"/><path class="cls-2" d="M298.2,1326.4c6.4-8.2,12.9-12.9,23.3-12.4" transform="translate(0 0)"/><path class="cls-2" d="M296.2,1295.9a55.3,55.3,0,0,1,22.2-.4" transform="translate(0 0)"/><path class="cls-2" d="M277.6,1279.6c4.7-3.8,11.4-3.2,17.4-2.4l17,2.2c-14.3-17.8-40.3-25.1-61.7-17.3" transform="translate(0 0)"/><path class="cls-2" d="M277.2,1237.4l10.1,2.5c9,2.1,18.1,4.4,26.2,8.8s15.4,11.3,18.1,20.1" transform="translate(0 0)"/><path class="cls-2" d="M321.4,1231.1a30.2,30.2,0,0,1,22,5.2" transform="translate(0 0)"/><path class="cls-2" d="M288.2,1175.3a92,92,0,0,1-56.6,10.3,44.8,44.8,0,0,1-10.9-2.8c-15.4-6.3-22.7-24.2-24.3-40.8-.6-6,.4-13.6,6.1-15.6s9,1.4,11.5,5.2,3.4,8.4,5.1,12.6c6.1,15.3,23.2,25.5,39.5,23.6" transform="translate(0 0)"/><path class="cls-2" d="M170,1100.8c-5.2,2.7-10.4,11.3-5.3,16.2s11.1-1.1,14.9-5.2a29.9,29.9,0,0,1,19-9.6c3.5-.4,7.3-.1,10.5-1.6" transform="translate(0 0)"/><path class="cls-2" d="M277.3,1201.6a8.3,8.3,0,0,0-2.6,8.1,8.4,8.4,0,0,0,6.1,6.1,13,13,0,0,0,7-.7c12.9-4.3,21.2-19.4,17.9-32.7" transform="translate(0 0)"/><path class="cls-2" d="M316.6,1215.7c9.4-10,12.3-25.5,7.4-38.3" transform="translate(0 0)"/><path class="cls-2" d="M195.8,1064.7a23.3,23.3,0,0,1,12.1,14" transform="translate(0 0)"/><path class="cls-2" d="M223.4,1067.1a72.1,72.1,0,0,1,10.7,19.4" transform="translate(0 0)"/><path class="cls-2" d="M251.3,1078.2c9.9,9.7,20.4,20.5,22.1,34.3" transform="translate(0 0)"/><path class="cls-2" d="M234.4,1105.3c-3.5.7-5.7,4.7-5.2,8.2s3.2,6.5,6.3,8.3,6.6,2.7,10,3.7c6.7,1.8,13.7,4.3,18.1,9.6.8,1,1.5,2.2,1.2,3.3s-1.9,2.2-3.1,3.1a7.4,7.4,0,0,0-1,10.2" transform="translate(0 0)"/><path class="cls-2" d="M279.4,1150.8c-.3-4.6,5.3-8.4,9.5-6.3,2.6,1.3,4.3,4.3,7.1,5.1,1.6-4.9,8.4-6.8,13-4.4s6.8,8.1,6.4,13.3" transform="translate(0 0)"/><path class="cls-2" d="M292,1099.2a59.3,59.3,0,0,1,5.3,27.8" transform="translate(0 0)"/><path class="cls-2" d="M332.9,1151.5a42.5,42.5,0,0,0-.1-39.8" transform="translate(0 0)"/><path class="cls-2" d="M341,1168.7a45.8,45.8,0,0,1,10,17.2" transform="translate(0 0)"/><path class="cls-2" d="M167.1,820.4a287.6,287.6,0,0,0,112.3,79c10.9,4.3,22.2,7.9,33,12.4" transform="translate(0 0)"/><path class="cls-2" d="M236.4,933.5c3.6,12.3,18,18.7,30.8,17.9s24.5-6.9,36.2-12.2,27-11.2,41.4-11.1,29.6,6.1,37,18.5" transform="translate(0 0)"/><path class="cls-2" d="M194.2,916.2a31.1,31.1,0,0,1,33.1-8.8c6,2.1,11.2,6,16.8,9a57.1,57.1,0,0,0,35.6,5.8" transform="translate(0 0)"/><path class="cls-2" d="M158.3,867.7a55.2,55.2,0,0,0,40.9,12.6" transform="translate(0 0)"/><path class="cls-2" d="M146.8,844.8a28.2,28.2,0,0,0,20.3,6.2" transform="translate(0 0)"/><path class="cls-2" d="M125.4,805.7c3.3,8.9,13.2,13.2,22.1,16.2" transform="translate(0 0)"/><path class="cls-2" d="M160.9,786.1l5.6,13.3" transform="translate(0 0)"/><path class="cls-2" d="M192.9,812.1a44.1,44.1,0,0,1,9.1,18.2" transform="translate(0 0)"/><path class="cls-2" d="M236.2,828.2a84.8,84.8,0,0,1,8.3,34.2" transform="translate(0 0)"/><path class="cls-2" d="M265.6,861.8a85.5,85.5,0,0,0,7.2,15.3" transform="translate(0 0)"/><path class="cls-2" d="M279.8,850c6.7,9.3,19.9,13.5,30.8,9.6,6.3-2.2,12.3-8.8,9.6-14.9s-7.5-6.1-12-8.1a32.8,32.8,0,0,1-16.4-15c-3.3-6.8-3.8-15.1-.4-21.9a31.1,31.1,0,0,1,7.9-9.8c10.3-9.2,24.8-14.8,38.3-11.4s24.2,17.7,21,31.2c-1.2,4.8-4.6,9.6-9.5,10.3s-9.9-3.1-14.3-6.2-9.4-5.5-14.7-5.1-10.6,4.3-10.9,9.6" transform="translate(0 0)"/><path class="cls-2" d="M348.2,754.4c12.2,4.2,24,10.8,32,20.9s11.9,24,8,36.3a33.7,33.7,0,0,1-26.7,22.7" transform="translate(0 0)"/><path class="cls-2" d="M405.9,866.6a68.6,68.6,0,0,0-37.8-14.2c-15.8-.8-33.3,5.3-40.3,19.4a21.4,21.4,0,0,0-2.4,13.8,14.6,14.6,0,0,0,8.4,10.8c6.9,2.8,14.5-.9,21.9-.9a22.4,22.4,0,0,1,21,15.3" transform="translate(0 0)"/><path class="cls-2" d="M356,877.8a24.5,24.5,0,0,1,23.8,4.3" transform="translate(0 0)"/><path class="cls-2" d="M352.4,955.4a38,38,0,0,1,23.7,17.4" transform="translate(0 0)"/><path class="cls-2" d="M346.9,999.1a44.2,44.2,0,0,1,25.9,19.5" transform="translate(0 0)"/><path class="cls-2" d="M345.6,1024.7a42.1,42.1,0,0,1,22.8,17.8" transform="translate(0 0)"/><path class="cls-2" d="M334.3,1055.2c6.3,1.4,12.6,2.9,18.2,6s10.5,8,12.4,14.2" transform="translate(0 0)"/><path class="cls-2" d="M337.4,1094.1c.1-5.9,3.2-13.5,10.7-8.1" transform="translate(0 0)"/><path class="cls-2" d="M350.3,1106.2c5.9,3.9,8,11.4,8.9,18.3a73.8,73.8,0,0,1,.5,10.5,62.8,62.8,0,0,1-4.9,22.2" transform="translate(0 0)"/><path class="cls-2" d="M429.3,1091.7c30.7-27.2,49.3-65.6,77.6-95.4A193.1,193.1,0,0,1,576,949.8" transform="translate(0 0)"/><path class="cls-2" d="M450.8,1032.7a169.6,169.6,0,0,1,75.3-80.4c11.3-6,24.6-9.3,34.5-17.7,2.5-2.1,4.8-4.5,7.4-6.5,7-5.1,16-6.5,24.7-7.8" transform="translate(0 0)"/><path class="cls-2" d="M507.7,941.9a129.3,129.3,0,0,1,43-24.8" transform="translate(0 0)"/><path class="cls-2" d="M551.1,901.4c9.4-6.5,20.8-9.6,32.1-11.6,18.8-3.3,40.5-4.9,56.2-17" transform="translate(0 0)"/><path class="cls-2" d="M613.6,865a95.8,95.8,0,0,0,31.6-15" transform="translate(0 0)"/><path class="cls-2" d="M298.5,879.9c0,3.4,2.3,6.4,4.5,9" transform="translate(0 0)"/><path class="cls-2" d="M456.6,835.9c20.3-9.3,29.6-32.7,45.7-48.2,7.6-7.2,16.6-12.7,25.7-17.8,16.8-9.4,34.2-13.9,52-21.3" transform="translate(0 0)"/><path class="cls-2" d="M467.4,799.5c7.7-12.3,18.3-22.3,29.9-31s22.2-17.9,34.1-23.1a293.9,293.9,0,0,1,44.5-15.7c14.1-3.7,26.4-5.6,38.4-15" transform="translate(0 0)"/><path class="cls-2" d="M618.5,697.1a38,38,0,0,0,16.6-11.3" transform="translate(0 0)"/><path class="cls-2" d="M367,728.5c14.9,9.7,27.7,23.3,34.2,40.3" transform="translate(0 0)"/><path class="cls-2" d="M406.8,846.3a160.6,160.6,0,0,0-.5-39.8" transform="translate(0 0)"/><path class="cls-2" d="M358.1,698.7c8.2,4,16.5,8.1,23.9,13.5a80.5,80.5,0,0,1,24.3,28.5" transform="translate(0 0)"/><path class="cls-2" d="M320.4,624.9c3.2.5,6.2-3,5.4-6.1s-4.8-4.7-7.9-6.4-6.4-5.4-5.5-9.2,5.2-5.4,8.9-4.7,6.6,3.2,9.2,5.8,4.3,4.3,7.2,4.1a6.5,6.5,0,0,0,3.4-1.5c3.5-2.6,4.9-7.3,4.9-11.7-.1-10.9-9.2-21.1-20.1-22.4" transform="translate(0 0)"/><path class="cls-2" d="M333.6,664c11.4,3.6,23.9,8.1,29.5,18.6" transform="translate(0 0)"/><path class="cls-2" d="M338.7,643.6a49.8,49.8,0,0,1,24.8,19.5" transform="translate(0 0)"/><path class="cls-2" d="M355.2,620c6.3,2.1,10.8,7.6,14.5,13.1,10.1,15.2,16.8,33.6,13.7,51.6" transform="translate(0 0)"/><path class="cls-2" d="M398.2,701.7a41.3,41.3,0,0,0,11.7-12.9" transform="translate(0 0)"/><path class="cls-2" d="M400.2,675.6a74.9,74.9,0,0,0,8.6-17.5" transform="translate(0 0)"/><path class="cls-2" d="M391.7,644.7a10.9,10.9,0,0,1,12-6.5" transform="translate(0 0)"/><path class="cls-2" d="M348.9,561.2a30.6,30.6,0,0,1,16.3,8.7c9,9.1,11.4,22.9,11.2,35.7" transform="translate(0 0)"/><path class="cls-2" d="M363.9,547.6a34.5,34.5,0,0,1,.5-24.7" transform="translate(0 0)"/><path class="cls-2" d="M360.8,502.1c5.2-3.7,13-2,17.7,2.4s6.9,10.9,8.2,17.2a88.2,88.2,0,0,1-1.5,42.4" transform="translate(0 0)"/><path class="cls-2" d="M382.8,483.7a24.7,24.7,0,0,1,5.4-11.7c3.2-3.8,7.6-6.8,9.9-11.3" transform="translate(0 0)"/><path class="cls-2" d="M396.5,497.7l4.3-9.8" transform="translate(0 0)"/><path class="cls-2" d="M384.9,625.7c16.3-6.7,28.8-26.8,24.4-44.7-.6-2.7-1.7-5.2-2.3-7.9-.9-4.9.1-10,.6-15a70.3,70.3,0,0,0-3.4-28.8" transform="translate(0 0)"/><path class="cls-2" d="M261.1,498.9c7.3,5,14.6,10.1,22.5,13.9,3.1,1.5,6.4,2.9,9.5,4.5,13.4,6.8,24.1,18.7,30.2,32.6" transform="translate(0 0)"/><path class="cls-2" d="M209.5,444.6a75.2,75.2,0,0,0,17.4,11.8c13,6.2,27.7,7.6,41.9,10s29,6.2,39.5,16.1" transform="translate(0 0)"/><path class="cls-2" d="M279.8,489.1a92.7,92.7,0,0,1,51.4,40.6" transform="translate(0 0)"/><path class="cls-2" d="M295.1,445.6a33.1,33.1,0,0,1,9.7,5,98.5,98.5,0,0,1,33.6,40.6" transform="translate(0 0)"/><path class="cls-2" d="M272.5,388.8c9.1,7.8,18.3,15.5,28.6,21.6,8.4,5,17.4,8.8,25.5,14.2,17.2,11.3,29.2,28.9,40,46.5" transform="translate(0 0)"/><path class="cls-2" d="M253.2,358c6.2,9.8,19.3,11.9,30.6,14.7,40,9.6,74.5,39.9,89.4,78.3" transform="translate(0 0)"/><path class="cls-2" d="M543.6,319.9a62.5,62.5,0,0,0,2.8-42.6" transform="translate(0 0)"/><path class="cls-2" d="M540.9,338.4a41.8,41.8,0,0,0,29.4-19.8" transform="translate(0 0)"/><path class="cls-2" d="M500.3,352.9a59.1,59.1,0,0,0,19.3-28.8" transform="translate(0 0)"/><path class="cls-2" d="M442,371.7a73.5,73.5,0,0,1,25.7-40.1" transform="translate(0 0)"/><path class="cls-2" d="M474.3,361.9a59,59,0,0,1,10.5-19.6" transform="translate(0 0)"/><path class="cls-2" d="M396.9,436.6c-30.7-115.2-2.8-238.4-22.1-356.1-2.4-15.1-6.3-31.2-18-41" transform="translate(0 0)"/><path class="cls-2" d="M389.9,55.9a54.4,54.4,0,0,1,5.3,28.9" transform="translate(0 0)"/><path class="cls-2" d="M410,70.7c6.4,19.4.5,40.7-6.9,59.8" transform="translate(0 0)"/><path class="cls-2" d="M348.1,84.1a23.7,23.7,0,0,0,16.3,19.6" transform="translate(0 0)"/><path class="cls-2" d="M339.5,104.5a59.8,59.8,0,0,0,23.6,32.6" transform="translate(0 0)"/><path class="cls-2" d="M322.4,123.9c4.2,8.5,8.7,17,14.8,24.3s14,13.5,23.2,16" transform="translate(0 0)"/><path class="cls-2" d="M313.2,143.6a89.8,89.8,0,0,0,47,52.5" transform="translate(0 0)"/><path class="cls-2" d="M352.6,215.3a73.5,73.5,0,0,0,12.1,19.1" transform="translate(0 0)"/><path class="cls-2" d="M327.5,220.9a100.6,100.6,0,0,0,29.6,31.3" transform="translate(0 0)"/><path class="cls-2" d="M289.2,182.7a108.9,108.9,0,0,0,26.3,59.5,195.6,195.6,0,0,0,14.4,14.4L364,288.9" transform="translate(0 0)"/><path class="cls-2" d="M277.6,241.4c2.5,6.6,8.8,11,15.2,14s13.3,5.1,19.1,9.2,7.8,7.2,11.4,11.1a255.3,255.3,0,0,0,40,35.6" transform="translate(0 0)"/><path class="cls-2" d="M287.1,273.7c10,17.2,22.1,26.6,38.3,38.1,5.7,4,11.7,7.6,17,12.1,10.8,9.1,18.3,21.4,25.6,33.5" transform="translate(0 0)"/><path class="cls-2" d="M248.4,295.8a124.9,124.9,0,0,0,38.5,46.8c14.8,10.9,31.8,18.4,46.6,29.4s26,24.3,37.6,37.8" transform="translate(0 0)"/><path class="cls-2" d="M315.2,331.5a104.2,104.2,0,0,1,19.9,19.9" transform="translate(0 0)"/><path class="cls-2" d="M239.5,321.5c5.4,10.3,12.1,19.2,23.2,22.4" transform="translate(0 0)"/><path class="cls-2" d="M400.9,159.8c4.2-10.3,13.9-17.1,20.6-25.7a72.2,72.2,0,0,0,14-32.8" transform="translate(0 0)"/><path class="cls-2" d="M407.9,183.4a45.3,45.3,0,0,1,4.3-7c1.5-2,3.2-3.7,4.8-5.6a164.9,164.9,0,0,0,27.8-43.9" transform="translate(0 0)"/><path class="cls-2" d="M400.9,232.7l20.7-24c14.9-17.4,30.5-36.1,33.5-58.8" transform="translate(0 0)"/><path class="cls-2" d="M405.3,306.7c4.6-17.5,19.6-30,31.5-43.7a152.9,152.9,0,0,0,33-64.1" transform="translate(0 0)"/><path class="cls-2" d="M405.2,269c8.5-19.8,25.4-34.8,36.4-53.3" transform="translate(0 0)"/><path class="cls-2" d="M481.1,225.3c6-7.4,12-14.9,15.3-23.8s3.5-19.6-1.9-27.4" transform="translate(0 0)"/><path class="cls-2" d="M422.3,367.8c5.4-26.4,23.7-48,40.9-68.7s34.6-43.5,37.6-70.3" transform="translate(0 0)"/><path class="cls-2" d="M410.4,347.4a170.9,170.9,0,0,1,49-78.1" transform="translate(0 0)"/></g></svg>