  0
SECTION
  2
HEADER
  9
$ACADVER
  1
AC1015
  9
$ACADMAINTVER
 70
    18
  9
$DWGCODEPAGE
  3
ANSI_1252
  9
$INSBASE
 10
9.835191955133527
 20
20.82047292298217
 30
0.0
  9
$EXTMIN
 10
1.000000000000000E+20
 20
1.000000000000000E+20
 30
1.000000000000000E+20
  9
$EXTMAX
 10
0.0
 20
0.0
 30
0.0
  9
$LIMMIN
 10
0.0
 20
0.0
  9
$LIMMAX
 10
36.0
 20
36.0
  9
$ORTHOMODE
 70
     1
  9
$REGENMODE
 70
     1
  9
$FILLMODE
 70
     1
  9
$QTEXTMODE
 70
     0
  9
$MIRRTEXT
 70
     1
  9
$LTSCALE
 40
1.0
  9
$ATTMODE
 70
     1
  9
$TEXTSIZE
 40
0.2
  9
$TRACEWID
 40
0.05
  9
$TEXTSTYLE
  7
STANDARD
  9
$CLAYER
  8
ADPDIM
  9
$CELTYPE
  6
BYLAYER
  9
$CECOLOR
 62
   256
  9
$CELTSCALE
 40
1.0
  9
$DISPSILH
 70
     0
  9
$DIMSCALE
 40
1.0
  9
$DIMASZ
 40
0.125
  9
$DIMEXO
 40
0.0625
  9
$DIMDLI
 40
0.38
  9
$DIMRND
 40
0.0
  9
$DIMDLE
 40
0.0
  9
$DIMEXE
 40
0.18
  9
$DIMTP
 40
0.0
  9
$DIMTM
 40
0.0
  9
$DIMTXT
 40
0.125
  9
$DIMCEN
 40
0.1875
  9
$DIMTSZ
 40
0.125
  9
$DIMTOL
 70
     0
  9
$DIMLIM
 70
     0
  9
$DIMTIH
 70
     0
  9
$DIMTOH
 70
     0
  9
$DIMSE1
 70
     0
  9
$DIMSE2
 70
     0
  9
$DIMTAD
 70
     0
  9
$DIMZIN
 70
     3
  9
$DIMBLK
  1

  9
$DIMASO
 70
     1
  9
$DIMSHO
 70
     1
  9
$DIMPOST
  1

  9
$DIMAPOST
  1

  9
$DIMALT
 70
     0
  9
$DIMALTD
 70
     1
  9
$DIMALTF
 40
25.4
  9
$DIMLFAC
 40
1.0
  9
$DIMTOFL
 70
     0
  9
$DIMTVP
 40
0.0
  9
$DIMTIX
 70
     0
  9
$DIMSOXD
 70
     0
  9
$DIMSAH
 70
     0
  9
$DIMBLK1
  1

  9
$DIMBLK2
  1

  9
$DIMSTYLE
  2
STANDARD
  9
$DIMCLRD
 70
     0
  9
$DIMCLRE
 70
     0
  9
$DIMCLRT
 70
     0
  9
$DIMTFAC
 40
1.0
  9
$DIMGAP
 40
0.125
  9
$DIMJUST
 70
     0
  9
$DIMSD1
 70
     0
  9
$DIMSD2
 70
     0
  9
$DIMTOLJ
 70
     1
  9
$DIMTZIN
 70
     3
  9
$DIMALTZ
 70
     3
  9
$DIMALTTZ
 70
     3
  9
$DIMUPT
 70
     0
  9
$DIMDEC
 70
     4
  9
$DIMTDEC
 70
     4
  9
$DIMALTU
 70
     5
  9
$DIMALTTD
 70
     1
  9
$DIMTXSTY
  7
STANDARD
  9
$DIMAUNIT
 70
     0
  9
$DIMADEC
 70
     0
  9
$DIMALTRND
 40
0.0
  9
$DIMAZIN
 70
     0
  9
$DIMDSEP
 70
    46
  9
$DIMATFIT
 70
     3
  9
$DIMFRAC
 70
     0
  9
$DIMLDRBLK
  1

  9
$DIMLUNIT
 70
     5
  9
$DIMLWD
 70
    -2
  9
$DIMLWE
 70
    -2
  9
$DIMTMOVE
 70
     2
  9
$LUNITS
 70
     5
  9
$LUPREC
 70
     4
  9
$SKETCHINC
 40
0.1
  9
$FILLETRAD
 40
0.0
  9
$AUNITS
 70
     0
  9
$AUPREC
 70
     0
  9
$MENU
  1
acad
  9
$ELEVATION
 40
0.0
  9
$PELEVATION
 40
0.0
  9
$THICKNESS
 40
0.0
  9
$LIMCHECK
 70
     0
  9
$CHAMFERA
 40
0.0
  9
$CHAMFERB
 40
0.0
  9
$CHAMFERC
 40
0.0
  9
$CHAMFERD
 40
0.0
  9
$SKPOLY
 70
     0
  9
$TDCREATE
 40
2450367.654939618
  9
$TDUCREATE
 40
2450367.821606285
  9
$TDUPDATE
 40
2453937.563545544
  9
$TDUUPDATE
 40
2453937.730212211
  9
$TDINDWG
 40
0.0103339931
  9
$TDUSRTIMER
 40
0.0103339931
  9
$USRTIMER
 70
     1
  9
$ANGBASE
 50
0.0
  9
$ANGDIR
 70
     0
  9
$PDMODE
 70
     0
  9
$PDSIZE
 40
0.0
  9
$PLINEWID
 40
0.0
  9
$SPLFRAME
 70
     0
  9
$SPLINETYPE
 70
     6
  9
$SPLINESEGS
 70
     8
  9
$HANDSEED
  5
78
  9
$SURFTAB1
 70
     6
  9
$SURFTAB2
 70
     6
  9
$SURFTYPE
 70
     6
  9
$SURFU
 70
     6
  9
$SURFV
 70
     6
  9
$UCSBASE
  2

  9
$UCSNAME
  2

  9
$UCSORG
 10
0.0
 20
0.0
 30
0.0
  9
$UCSXDIR
 10
1.0
 20
0.0
 30
0.0
  9
$UCSYDIR
 10
0.0
 20
1.0
 30
0.0
  9
$UCSORTHOREF
  2

  9
$UCSORTHOVIEW
 70
     0
  9
$UCSORGTOP
 10
0.0
 20
0.0
 30
0.0
  9
$UCSORGBOTTOM
 10
0.0
 20
0.0
 30
0.0
  9
$UCSORGLEFT
 10
0.0
 20
0.0
 30
0.0
  9
$UCSORGRIGHT
 10
0.0
 20
0.0
 30
0.0
  9
$UCSORGFRONT
 10
0.0
 20
0.0
 30
0.0
  9
$UCSORGBACK
 10
0.0
 20
0.0
 30
0.0
  9
$PUCSBASE
  2

  9
$PUCSNAME
  2

  9
$PUCSORG
 10
0.0
 20
0.0
 30
0.0
  9
$PUCSXDIR
 10
1.0
 20
0.0
 30
0.0
  9
$PUCSYDIR
 10
0.0
 20
1.0
 30
0.0
  9
$PUCSORTHOREF
  2

  9
$PUCSORTHOVIEW
 70
     0
  9
$PUCSORGTOP
 10
0.0
 20
0.0
 30
0.0
  9
$PUCSORGBOTTOM
 10
0.0
 20
0.0
 30
0.0
  9
$PUCSORGLEFT
 10
0.0
 20
0.0
 30
0.0
  9
$PUCSORGRIGHT
 10
0.0
 20
0.0
 30
0.0
  9
$PUCSORGFRONT
 10
0.0
 20
0.0
 30
0.0
  9
$PUCSORGBACK
 10
0.0
 20
0.0
 30
0.0
  9
$USERI1
 70
     0
  9
$USERI2
 70
     0
  9
$USERI3
 70
     0
  9
$USERI4
 70
     0
  9
$USERI5
 70
     0
  9
$USERR1
 40
0.0
  9
$USERR2
 40
0.0
  9
$USERR3
 40
0.0
  9
$USERR4
 40
0.0
  9
$USERR5
 40
0.0
  9
$WORLDVIEW
 70
     1
  9
$SHADEDGE
 70
     3
  9
$SHADEDIF
 70
    70
  9
$TILEMODE
 70
     1
  9
$MAXACTVP
 70
    15
  9
$PINSBASE
 10
0.1093756556510927
 20
0.0
 30
0.0
  9
$PLIMCHECK
 70
     0
  9
$PEXTMIN
 10
1.000000000000000E+20
 20
1.000000000000000E+20
 30
1.000000000000000E+20
  9
$PEXTMAX
 10
-1.000000000000000E+20
 20
-1.000000000000000E+20
 30
-1.000000000000000E+20
  9
$PLIMMIN
 10
0.0
 20
0.0
  9
$PLIMMAX
 10
12.0
 20
9.0
  9
$UNITMODE
 70
     0
  9
$VISRETAIN
 70
     0
  9
$PLINEGEN
 70
     0
  9
$PSLTSCALE
 70
     1
  9
$TREEDEPTH
 70
  3020
  9
$CMLSTYLE
  2
STANDARD
  9
$CMLJUST
 70
     0
  9
$CMLSCALE
 40
1.0
  9
$PROXYGRAPHICS
 70
     1
  9
$MEASUREMENT
 70
     0
  9
$CELWEIGHT
370
    -1
  9
$ENDCAPS
280
     0
  9
$JOINSTYLE
280
     0
  9
$LWDISPLAY
290
     0
  9
$INSUNITS
 70
     0
  9
$HYPERLINKBASE
  1

  9
$STYLESHEET
  1

  9
$XEDIT
290
     1
  9
$CEPSNTYPE
380
     0
  9
$PSTYLEMODE
290
     1
  9
$FINGERPRINTGUID
  2
{9CD83069-2956-428D-A9BA-58B3486DF7FF}
  9
$VERSIONGUID
  2
{BCBBDF54-8DEB-4495-8C0A-99238BA0DAB0}
  9
$EXTNAMES
290
     1
  9
$PSVPSCALE
 40
0.0
  9
$OLESTARTUP
290
     0
  0
ENDSEC
  0
SECTION
  2
CLASSES
  0
CLASS
  1
DICTIONARYVAR
  2
AcDbDictionaryVar
  3
ObjectDBX Classes
 90
        0
280
     0
281
     0
  0
CLASS
  1
ACDBDICTIONARYWDFLT
  2
AcDbDictionaryWithDefault
  3
ObjectDBX Classes
 90
        0
280
     0
281
     0
  0
CLASS
  1
ACDBPLACEHOLDER
  2
AcDbPlaceHolder
  3
ObjectDBX Classes
 90
        0
280
     0
281
     0
  0
CLASS
  1
LAYOUT
  2
AcDbLayout
  3
ObjectDBX Classes
 90
        0
280
     0
281
     0
  0
ENDSEC
  0
SECTION
  2
TABLES
  0
TABLE
  2
VPORT
  5
61
330
0
100
AcDbSymbolTable
 70
     1
  0
VPORT
  5
62
330
61
100
AcDbSymbolTableRecord
100
AcDbViewportTableRecord
  2
*Active
 70
     0
 10
0.0
 20
0.0
 11
1.0
 21
1.0
 12
9.618180450155563
 22
22.9191285075144
 13
0.0
 23
0.0
 14
0.5740882589684922
 24
0.5740882589684922
 15
0.5
 25
0.5
 16
0.0
 26
0.0
 36
1.0
 17
0.0
 27
0.0
 37
0.0
 40
8.710116755439862
 41
1.499234303215926
 42
50.0
 43
0.0
 44
0.0
 50
0.0
 51
0.0
 71
     0
 72
   100
 73
     1
 74
     0
 75
     0
 76
     0
 77
     0
 78
     0
281
     0
 65
     1
110
0.0
120
0.0
130
0.0
111
1.0
121
0.0
131
0.0
112
0.0
122
1.0
132
0.0
 79
     0
146
0.0
  0
ENDTAB
  0
TABLE
  2
LTYPE
  5
5C
330
0
100
AcDbSymbolTable
 70
     1
  0
LTYPE
  5
5D
330
5C
100
AcDbSymbolTableRecord
100
AcDbLinetypeTableRecord
  2
BYBLOCK
 70
     0
  3

 72
    65
 73
     0
 40
0.0
  0
LTYPE
  5
5E
330
5C
100
AcDbSymbolTableRecord
100
AcDbLinetypeTableRecord
  2
BYLAYER
 70
     0
  3

 72
    65
 73
     0
 40
0.0
  0
LTYPE
  5
A
330
5C
100
AcDbSymbolTableRecord
100
AcDbLinetypeTableRecord
  2
CONTINUOUS
 70
     0
  3
Solid line
 72
    65
 73
     0
 40
0.0
  0
ENDTAB
  0
TABLE
  2
LAYER
  5
59
330
0
100
AcDbSymbolTable
 70
     4
  0
LAYER
  5
6
330
59
100
AcDbSymbolTableRecord
100
AcDbLayerTableRecord
  2
0
 70
     0
 62
     7
  6
CONTINUOUS
370
    -3
390
7
  0
LAYER
  5
13
330
59
100
AcDbSymbolTableRecord
100
AcDbLayerTableRecord
  2
ADPDIM
 70
     0
 62
     3
  6
CONTINUOUS
370
    -3
390
7
  0
LAYER
  5
C
330
59
100
AcDbSymbolTableRecord
100
AcDbLayerTableRecord
  2
ADP1DETAIL
 70
     0
 62
     7
  6
CONTINUOUS
370
    -3
390
7
  0
LAYER
  5
1F
330
59
100
AcDbSymbolTableRecord
100
AcDbLayerTableRecord
  2
DEFPOINTS
 70
     0
 62
     7
  6
CONTINUOUS
290
     0
370
    -3
390
7
  0
ENDTAB
  0
TABLE
  2
STYLE
  5
5A
330
0
100
AcDbSymbolTable
 70
     2
  0
STYLE
  5
1D
330
5A
100
AcDbSymbolTableRecord
100
AcDbTextStyleTableRecord
  2
STANDARD
 70
     0
 40
0.0
 41
1.0
 50
0.0
 71
     0
 42
0.2
  3
txt
  4

  0
STYLE
  5
4E
330
5A
100
AcDbSymbolTableRecord
100
AcDbTextStyleTableRecord
  2
ARIAL_WIDE
 70
     0
 40
0.0
 41
1.25
 50
0.0
 71
     0
 42
0.2
  3
ARIAL.TTF
  4

1001
ACAD
1000
Arial
1071
       34
  0
ENDTAB
  0
TABLE
  2
VIEW
  5
5F
330
0
100
AcDbSymbolTable
 70
     0
  0
ENDTAB
  0
TABLE
  2
UCS
  5
60
330
0
100
AcDbSymbolTable
 70
     0
  0
ENDTAB
  0
TABLE
  2
APPID
  5
63
330
0
100
AcDbSymbolTable
 70
     1
  0
APPID
  5
4F
330
63
100
AcDbSymbolTableRecord
100
AcDbRegAppTableRecord
  2
ACAD
 70
     0
  0
ENDTAB
  0
TABLE
  2
DIMSTYLE
  5
64
330
0
100
AcDbSymbolTable
 70
     1
100
AcDbDimStyleTable
 71
     0
  0
DIMSTYLE
105
6C
330
64
100
AcDbSymbolTableRecord
100
AcDbDimStyleTableRecord
  2
STANDARD
 70
     0
340
1D
  0
ENDTAB
  0
TABLE
  2
BLOCK_RECORD
  5
1
330
0
100
AcDbSymbolTable
 70
     2
  0
BLOCK_RECORD
  5
2
102
{ACAD_XDICTIONARY
360
3
102
}
330
1
100
AcDbSymbolTableRecord
100
AcDbBlockTableRecord
  2
*MODEL_SPACE
340
51
  0
BLOCK_RECORD
  5
53
102
{ACAD_XDICTIONARY
360
54
102
}
330
1
100
AcDbSymbolTableRecord
100
AcDbBlockTableRecord
  2
*PAPER_SPACE
340
58
  0
BLOCK_RECORD
  5
2C
330
1
100
AcDbSymbolTableRecord
100
AcDbBlockTableRecord
  2
*D0
340
0
  0
BLOCK_RECORD
  5
14
330
1
100
AcDbSymbolTableRecord
100
AcDbBlockTableRecord
  2
*D1
340
0
  0
ENDTAB
  0
ENDSEC
  0
SECTION
  2
BLOCKS
  0
BLOCK
  5
5
330
2
100
AcDbEntity
  8
0
100
AcDbBlockBegin
  2
*MODEL_SPACE
 70
     0
 10
0.0
 20
0.0
 30
0.0
  3
*MODEL_SPACE
  1

  0
ENDBLK
  5
50
330
2
100
AcDbEntity
  8
0
100
AcDbBlockEnd
  0
BLOCK
  5
56
330
53
100
AcDbEntity
 67
     1
  8
0
100
AcDbBlockBegin
  2
*PAPER_SPACE
 70
     0
 10
0.0
 20
0.0
 30
0.0
  3
*PAPER_SPACE
  1

  0
ENDBLK
  5
57
330
53
100
AcDbEntity
 67
     1
  8
0
100
AcDbBlockEnd
  0
BLOCK
  5
2D
330
2C
100
AcDbEntity
  8
0
100
AcDbBlockBegin
  2
*D0
 70
     1
 10
0.0
 20
0.0
 30
0.0
  3
*D0
  1
*U
  0
LINE
  5
2E
330
2C
100
AcDbEntity
  8
0
  6
ByBlock
 62
     0
100
AcDbLine
 10
9.800415309533788
 20
20.19943478716664
 30
0.0
 11
10.00494277197185
 21
20.05566929371065
 31
0.0
  0
LINE
  5
2F
330
2C
100
AcDbEntity
  8
0
  6
ByBlock
 62
     0
100
AcDbLine
 10
9.626268831586758
 20
20.1690538026756
 30
0.0
 11
9.974561787480817
 21
20.22981577165768
 31
0.0
  0
LINE
  5
30
330
2C
100
AcDbEntity
  8
0
  6
ByBlock
 62
     0
100
AcDbLine
 10
9.408387847095719
 20
20.34320028062263
 30
0.0
 11
9.783387847095719
 21
20.34320028062263
 31
0.0
  0
LINE
  5
31
330
2C
100
AcDbEntity
  8
0
  6
ByBlock
 62
     0
100
AcDbLine
 10
9.595887847095719
 20
20.15570028062263
 30
0.0
 11
9.595887847095719
 21
20.53070028062263
 31
0.0
  0
TEXT
  5
32
330
2C
100
AcDbEntity
  8
0
  6
ByBlock
 62
     0
100
AcDbText
 10
10.07126512982689
 20
19.93265468137314
 30
0.0
 40
0.125
  1
%%c1/2
 50
324.8960276245853
 72
     1
 11
10.27764605522261
 21
19.86398196910266
 31
0.0
100
AcDbText
 73
     2
  0
POINT
  5
33
330
2C
100
AcDbEntity
  8
DEFPOINTS
  6
ByBlock
 62
     0
100
AcDbPoint
 10
9.800415309533788
 20
20.19943478716664
 30
0.0
  0
POINT
  5
34
330
2C
100
AcDbEntity
  8
DEFPOINTS
  6
ByBlock
 62
     0
100
AcDbPoint
 10
9.39136038465765
 20
20.48696577407862
 30
0.0
  0
ENDBLK
  5
35
330
2C
100
AcDbEntity
  8
0
100
AcDbBlockEnd
  0
BLOCK
  5
15
330
14
100
AcDbEntity
  8
0
100
AcDbBlockBegin
  2
*D1
 70
     1
 10
0.0
 20
0.0
 30
0.0
  3
*D1
  1
*U
  0
LINE
  5
16
330
14
100
AcDbEntity
  8
0
  6
ByBlock
 62
     0
100
AcDbLine
 10
9.65838784709572
 20
26.57062167933074
 30
0.0
 11
11.92314337085801
 21
26.57062167933074
 31
0.0
  0
LINE
  5
17
330
14
100
AcDbEntity
  8
0
  6
ByBlock
 62
     0
100
AcDbLine
 10
9.897691955133527
 20
20.82047292298217
 30
0.0
 11
11.92314337085801
 21
20.82047292298217
 31
0.0
  0
LINE
  5
18
330
14
100
AcDbEntity
  8
0
  6
ByBlock
 62
     0
100
AcDbLine
 10
11.74314337085801
 20
26.57062167933074
 30
0.0
 11
11.74314337085801
 21
24.11221396782313
 31
0.0
  0
LINE
  5
19
330
14
100
AcDbEntity
  8
0
  6
ByBlock
 62
     0
100
AcDbLine
 10
11.74314337085801
 20
20.82047292298217
 30
0.0
 11
11.74314337085801
 21
23.27888063448979
 31
0.0
  0
LINE
  5
1A
330
14
100
AcDbEntity
  8
0
  6
ByBlock
 62
     0
100
AcDbLine
 10
11.86814337085801
 20
26.44562167933074
 30
0.0
 11
11.61814337085801
 21
26.69562167933074
 31
0.0
  0
LINE
  5
1B
330
14
100
AcDbEntity
  8
0
  6
ByBlock
 62
     0
100
AcDbLine
 10
11.86814337085801
 20
20.69547292298217
 30
0.0
 11
11.61814337085801
 21
20.94547292298217
 31
0.0
  0
TEXT
  5
1C
330
14
100
AcDbEntity
  8
0
  6
ByBlock
 62
     0
100
AcDbText
 10
11.80564337085801
 20
23.40388063448979
 30
0.0
 40
0.125
  1
5 3/4
 50
90.0
 72
     1
 11
11.74314337085801
 21
23.69554730115646
 31
0.0
100
AcDbText
 73
     2
  0
POINT
  5
1E
330
14
100
AcDbEntity
  8
DEFPOINTS
  6
ByBlock
 62
     0
100
AcDbPoint
 10
9.59588784709572
 20
26.57062167933074
 30
0.0
  0
POINT
  5
20
330
14
100
AcDbEntity
  8
DEFPOINTS
  6
ByBlock
 62
     0
100
AcDbPoint
 10
9.835191955133527
 20
20.82047292298217
 30
0.0
  0
POINT
  5
21
330
14
100
AcDbEntity
  8
DEFPOINTS
  6
ByBlock
 62
     0
100
AcDbPoint
 10
11.74314337085801
 20
20.82047292298217
 30
0.0
  0
ENDBLK
  5
22
330
14
100
AcDbEntity
  8
0
100
AcDbBlockEnd
  0
ENDSEC
  0
SECTION
  2
ENTITIES
  0
LWPOLYLINE
  5
B
330
2
100
AcDbEntity
  8
ADP1DETAIL
100
AcDbPolyline
 90
       18
 70
     0
 43
0.0
 10
9.835191955133527
 20
22.95490246185099
 10
9.835191955133527
 20
23.89458842235928
 42
-0.4754340721515156
 10
10.09696161556083
 20
24.00869314613529
 42
-0.5745050274743785
 10
10.1842181690366
 20
23.80733186888351
 42
-0.0051019080128722
 10
10.09696161556083
 20
23.70665123025762
 42
0.5057119906688348
 10
10.15736999873637
 20
23.53213812330608
 42
0.3213089460197775
 10
10.47283599976415
 20
23.52542608073102
 42
0.1467688363035712
 10
10.55338051066486
 20
23.40460931437996
 42
0.4201428498549757
 10
10.76145383049169
 20
23.3978972718049
 42
0.1954848898082682
 10
10.93596693744323
 20
23.76034757085809
 42
0.5595943666832742
 10
11.13732821469501
 20
24.50538429668966
 42
0.7102602359755199
 10
11.02993553349406
 20
24.51209633926473
 42
-0.4982328622639245
 10
10.65406114929075
 20
24.47182408381437
 42
0.1492212140361556
 10
10.11709774328601
 20
24.65976127591603
 42
0.2110062479914733
 10
10.14394591358625
 20
25.45178229977301
 42
0.0341976857038046
 10
9.808343784833288
 20
25.90820119487704
 42
-0.1018728450599341
 10
9.714375188782458
 20
26.14312268500411
 42
-0.013658653568054
 10
9.63383067788175
 20
26.51228502663236
 42
-0.013658653568054
  0
LWPOLYLINE
  5
D
330
2
100
AcDbEntity
  8
ADP1DETAIL
100
AcDbPolyline
 90
       18
 70
     0
 43
0.0
 10
9.356583739057914
 20
22.95490246185099
 10
9.356583739057914
 20
23.89458842235928
 42
0.4754340721515156
 10
9.094814078630605
 20
24.00869314613529
 42
0.5745050274743785
 10
9.007557525154835
 20
23.80733186888351
 42
0.0051019080128722
 10
9.094814078630605
 20
23.70665123025762
 42
-0.5057119906688348
 10
9.034405695455072
 20
23.53213812330608
 42
-0.3213089460197775
 10
8.718939694427291
 20
23.52542608073102
 42
-0.1467688363035712
 10
8.638395183526583
 20
23.40460931437996
 42
-0.4201428498549757
 10
8.430321863699747
 20
23.3978972718049
 42
-0.1954848898082682
 10
8.255808756748209
 20
23.76034757085809
 42
-0.5595943666832742
 10
8.054447479496431
 20
24.50538429668966
 42
-0.7102602359755199
 10
8.161840160697378
 20
24.51209633926473
 42
0.4982328622639245
 10
8.537714544900692
 20
24.47182408381437
 42
-0.1492212140361556
 10
9.07467795090543
 20
24.65976127591603
 42
-0.2110062479914733
 10
9.047829780605191
 20
25.45178229977301
 42
-0.0341976857038046
 10
9.383431909358153
 20
25.90820119487704
 42
0.1018728450599341
 10
9.477400505408983
 20
26.14312268500411
 42
0.013658653568054
 10
9.557945016309691
 20
26.51228502663236
 42
0.013658653568054
  0
LWPOLYLINE
  5
E
330
2
100
AcDbEntity
  8
ADP1DETAIL
100
AcDbPolyline
 90
        5
 70
     0
 43
0.0
 10
8.604834970651285
 20
24.13622195506141
 42
0.6340037732023131
 10
9.034405695455072
 20
23.72007531540774
 42
-0.6180339887498482
 10
9.047829780605191
 20
23.67980305995738
 42
-0.505191067369676
 10
8.544426587475753
 20
23.9885570184101
 42
0.1408364922532912
 10
8.725651737002349
 20
23.51871403815597
 42
-0.3358141719068611
  0
ARC
  5
F
330
2
100
AcDbEntity
  8
ADP1DETAIL
100
AcDbCircle
 10
9.098908683753611
 20
23.65507345907997
 30
0.0
 40
0.6470407092572961
100
AcDbArc
 50
148.9759310041059
 51
207.368132507284
  0
LWPOLYLINE
  5
10
330
2
100
AcDbEntity
  8
ADP1DETAIL
100
AcDbPolyline
 90
        5
 70
     0
 43
0.0
 10
10.58694072354015
 20
24.13622195506141
 42
-0.6340037732023131
 10
10.15736999873637
 20
23.72007531540774
 42
0.6180339887498482
 10
10.14394591358625
 20
23.67980305995738
 42
0.505191067369676
 10
10.64734910671569
 20
23.9885570184101
 42
-0.1408364922532912
 10
10.46612395718909
 20
23.51871403815597
 42
0.3358141719068611
  0
ARC
  5
11
330
2
100
AcDbEntity
  8
ADP1DETAIL
100
AcDbCircle
 10
10.09286701043783
 20
23.65507345907997
 30
0.0
 40
0.6470407092572961
100
AcDbArc
 50
332.631867492716
 51
31.02406899589405
  0
DIMENSION
  5
12
330
2
100
AcDbEntity
  8
ADPDIM
100
AcDbDimension
  2
*D1
 10
11.74314337085801
 20
20.82047292298217
 30
0.0
 11
11.74314337085801
 21
23.69554730115646
 31
0.0
 71
     5
 42
-1.0
100
AcDbAlignedDimension
 13
9.59588784709572
 23
26.57062167933074
 33
0.0
 14
9.835191955133527
 24
20.82047292298217
 34
0.0
 50
90.0
100
AcDbRotatedDimension
  0
CIRCLE
  5
23
330
2
100
AcDbEntity
  8
ADP1DETAIL
100
AcDbCircle
 10
9.595887847095719
 20
20.34320028062263
 30
0.0
 40
0.25
  0
LINE
  5
24
330
2
100
AcDbEntity
  8
ADP1DETAIL
100
AcDbLine
 10
9.222342887556729
 20
22.00179241619259
 30
0.0
 11
9.969432806634712
 21
22.00179241619259
 31
0.0
  0
LINE
  5
25
330
2
100
AcDbEntity
  8
ADP1DETAIL
100
AcDbLine
 10
9.343159653907799
 20
21.81385522409093
 30
0.0
 11
9.848616040283642
 21
21.81385522409093
 31
0.0
  0
LINE
  5
26
330
2
100
AcDbEntity
  8
ADP1DETAIL
100
AcDbLine
 10
9.356583739057914
 20
20.82047292298217
 30
0.0
 11
9.835191955133524
 21
20.82047292298217
 31
0.0
  0
LINE
  5
27
330
2
100
AcDbEntity
  8
ADP1DETAIL
100
AcDbLine
 10
9.343159653907799
 20
22.17630552314413
 30
0.0
 11
9.848616040283642
 21
22.17630552314413
 31
0.0
  0
LINE
  5
28
330
2
100
AcDbEntity
  8
ADP1DETAIL
100
AcDbLine
 10
9.222342887556729
 20
22.78038935489945
 30
0.0
 11
9.969432806634712
 21
22.78038935489945
 31
0.0
  0
LINE
  5
29
330
2
100
AcDbEntity
  8
ADP1DETAIL
100
AcDbLine
 10
9.343159653907799
 20
22.59245216279779
 30
0.0
 11
9.848616040283642
 21
22.59245216279779
 31
0.0
  0
LINE
  5
2A
330
2
100
AcDbEntity
  8
ADP1DETAIL
100
AcDbLine
 10
9.343159653907799
 20
22.95490246185099
 30
0.0
 11
9.848616040283642
 21
22.95490246185099
 31
0.0
  0
DIMENSION
  5
2B
330
2
100
AcDbEntity
  8
ADPDIM
100
AcDbDimension
  2
*D0
 10
9.39136038465765
 20
20.48696577407862
 30
0.0
 11
10.27764605522261
 21
19.86398196910266
 31
0.0
 70
     3
 71
     5
 42
-1.0
100
AcDbDiametricDimension
 15
9.800415309533788
 25
20.19943478716664
 35
0.0
 40
0.0
  0
LWPOLYLINE
  5
36
330
2
100
AcDbEntity
  8
ADP1DETAIL
100
AcDbPolyline
 90
        2
 70
     0
 43
0.0
 10
9.356583739057914
 20
22.17630552314413
 10
9.356583739057914
 20
22.59245216279779
 42
0.4754340721515156
  0
LWPOLYLINE
  5
37
330
2
100
AcDbEntity
  8
ADP1DETAIL
100
AcDbPolyline
 90
        2
 70
     0
 43
0.0
 10
9.356583739057914
 20
20.82047292298217
 10
9.356583739057914
 20
21.81385522409092
 42
0.4754340721515156
  0
LINE
  5
38
330
2
100
AcDbEntity
  8
ADP1DETAIL
100
AcDbLine
 10
9.222342887556729
 20
22.00179241619259
 30
0.0
 11
9.343159653907799
 21
21.81385522409093
 31
0.0
  0
LINE
  5
39
330
2
100
AcDbEntity
  8
ADP1DETAIL
100
AcDbLine
 10
9.343159653907799
 20
22.17630552314413
 30
0.0
 11
9.222342887556729
 21
22.00179241619259
 31
0.0
  0
LINE
  5
3A
330
2
100
AcDbEntity
  8
ADP1DETAIL
100
AcDbLine
 10
9.343159653907799
 20
22.95490246185099
 30
0.0
 11
9.222342887556729
 21
22.78038935489945
 31
0.0
  0
LINE
  5
3B
330
2
100
AcDbEntity
  8
ADP1DETAIL
100
AcDbLine
 10
9.222342887556729
 20
22.78038935489945
 30
0.0
 11
9.343159653907799
 21
22.59245216279779
 31
0.0
  0
LWPOLYLINE
  5
3C
330
2
100
AcDbEntity
  8
ADP1DETAIL
100
AcDbPolyline
 90
        2
 70
     0
 43
0.0
 10
9.835191955133527
 20
22.17630552314413
 10
9.835191955133527
 20
22.59245216279779
 42
-0.4754340721515156
  0
LWPOLYLINE
  5
3D
330
2
100
AcDbEntity
  8
ADP1DETAIL
100
AcDbPolyline
 90
        2
 70
     0
 43
0.0
 10
9.835191955133527
 20
20.82047292298217
 10
9.835191955133527
 20
21.81385522409092
 42
-0.4754340721515156
  0
LINE
  5
3E
330
2
100
AcDbEntity
  8
ADP1DETAIL
100
AcDbLine
 10
9.848616040283642
 20
22.17630552314413
 30
0.0
 11
9.969432806634712
 21
22.00179241619259
 31
0.0
  0
LINE
  5
3F
330
2
100
AcDbEntity
  8
ADP1DETAIL
100
AcDbLine
 10
9.969432806634712
 20
22.00179241619259
 30
0.0
 11
9.848616040283642
 21
21.81385522409093
 31
0.0
  0
LINE
  5
40
330
2
100
AcDbEntity
  8
ADP1DETAIL
100
AcDbLine
 10
9.848616040283642
 20
22.95490246185099
 30
0.0
 11
9.969432806634712
 21
22.78038935489945
 31
0.0
  0
LINE
  5
41
330
2
100
AcDbEntity
  8
ADP1DETAIL
100
AcDbLine
 10
9.969432806634712
 20
22.78038935489945
 30
0.0
 11
9.848616040283642
 21
22.59245216279779
 31
0.0
  0
LWPOLYLINE
  5
42
330
2
100
AcDbEntity
  8
ADP1DETAIL
100
AcDbPolyline
 90
        8
 70
     0
 43
0.0
 10
9.497536633134158
 20
24.00869314613529
 42
0.3656985242510302
 10
8.967285269704483
 20
24.37785548776354
 42
0.1779687949667858
 10
8.470594119150101
 20
24.09594969961105
 42
-0.8265767941339646
 10
8.105760171625284
 20
24.54687869352311
 42
0.656416947888547
 10
8.31621713992374
 20
24.02882927386046
 42
0.2180333462476602
 10
8.604834970651285
 20
24.13622195506141
 42
-0.2964400679810142
 10
9.222342887556729
 20
24.31073506201295
 42
-0.1722246145778212
 10
9.490824590559098
 20
23.99526906098516
 42
-0.1840408372903657
  0
LINE
  5
43
330
2
100
AcDbEntity
  8
ADP1DETAIL
100
AcDbLine
 10
9.557945016309691
 20
26.51228502663236
 30
0.0
 11
9.564657058884749
 21
24.04896540158564
 31
0.0
  0
LWPOLYLINE
  5
44
330
2
100
AcDbEntity
  8
ADP1DETAIL
100
AcDbPolyline
 90
        2
 70
     0
 43
0.0
 10
10.11709774328601
 20
24.65976127591603
 42
0.3492790275240031
 10
9.627118635306691
 20
24.04896540158564
 42
-0.9959931751664385
  0
LWPOLYLINE
  5
45
330
2
100
AcDbEntity
  8
ADP1DETAIL
100
AcDbPolyline
 90
        2
 70
     0
 43
0.0
 10
9.07467795090543
 20
24.65976127591603
 42
-0.3492790275240031
 10
9.564657058884749
 20
24.04896540158564
 42
0.9959931751664385
  0
ARC
  5
46
330
2
100
AcDbEntity
  8
ADP1DETAIL
100
AcDbCircle
 10
9.59588784709572
 20
26.52911412591361
 30
0.0
 40
0.0415075534171281
100
AcDbArc
 50
336.0808792402054
 51
203.9191207597947
  0
LINE
  5
47
330
2
100
AcDbEntity
  8
ADP1DETAIL
100
AcDbLine
 10
9.490824590559098
 20
24.35100731746331
 30
0.0
 11
9.557945016309691
 21
26.51228502663236
 31
0.0
  0
ARC
  5
48
330
2
100
AcDbEntity
  8
ADP1DETAIL
100
AcDbCircle
 10
8.66585149191245
 20
23.53837716959233
 30
0.0
 40
0.4662680599173153
100
AcDbArc
 50
105.0949055271054
 51
151.5717746910918
  0
LINE
  5
49
330
2
100
AcDbEntity
  8
ADP1DETAIL
100
AcDbLine
 10
9.700951103632343
 20
24.35100731746331
 30
0.0
 11
9.63383067788175
 21
26.51228502663236
 31
0.0
  0
LINE
  5
4A
330
2
100
AcDbEntity
  8
ADP1DETAIL
100
AcDbLine
 10
9.63383067788175
 20
26.51228502663236
 30
0.0
 11
9.627118635306691
 21
24.04896540158564
 31
0.0
  0
LWPOLYLINE
  5
4B
330
2
100
AcDbEntity
  8
ADP1DETAIL
100
AcDbPolyline
 90
        8
 70
     0
 43
0.0
 10
9.694239061057283
 20
24.00869314613529
 42
-0.3656985242510302
 10
10.22449042448696
 20
24.37785548776354
 42
-0.1779687949667858
 10
10.72118157504134
 20
24.09594969961105
 42
0.8265767941339646
 10
11.08601552256615
 20
24.54687869352311
 42
-0.656416947888547
 10
10.8755585542677
 20
24.02882927386046
 42
-0.2180333462476602
 10
10.58694072354015
 20
24.13622195506141
 42
0.2964400679810142
 10
9.969432806634712
 20
24.31073506201295
 42
0.1722246145778212
 10
9.700951103632343
 20
23.99526906098516
 42
0.1840408372903657
  0
ARC
  5
4C
330
2
100
AcDbEntity
  8
ADP1DETAIL
100
AcDbCircle
 10
10.52592420227899
 20
23.53837716959233
 30
0.0
 40
0.4662680599173153
100
AcDbArc
 50
28.42822530890819
 51
74.90509447289461
  0
TEXT
  5
4D
330
2
100
AcDbEntity
  8
ADPDIM
100
AcDbText
 10
3.228007560601858
 20
19.18095770777938
 30
0.0
 40
0.125
  1
J U L I U S  B L U M  &  C O . ,  I N C .      ( 8 0 0 )  5 2 6 - 6 2 9 3        W W W . J U L I U S B L U M . C O M        P A R T  N O .  1 1
 41
1.25
  7
ARIAL_WIDE
 72
     1
 11
9.595887847095719
 21
19.30595770777937
 31
0.0
100
AcDbText
 73
     3
  0
ENDSEC
  0
SECTION
  2
OBJECTS
  0
DICTIONARY
  5
9
330
0
100
AcDbDictionary
281
     1
  3
ACAD_COLOR
350
6A
  3
ACAD_GROUP
350
66
  3
ACAD_LAYOUT
350
52
  3
ACAD_MATERIAL
350
69
  3
ACAD_MLINESTYLE
350
67
  3
ACAD_PLOTSETTINGS
350
68
  3
ACAD_PLOTSTYLENAME
350
8
  3
ACDBHEADERROUNDTRIPXREC
350
71
  3
AcDbVariableDictionary
350
6D
  0
DICTIONARY
  5
3
330
2
100
AcDbDictionary
280
     1
281
     1
  3
ACAD_LAYOUTSELFREF
360
4
  0
DICTIONARY
  5
54
330
53
100
AcDbDictionary
280
     1
281
     1
  3
ACAD_LAYOUTSELFREF
360
55
  0
DICTIONARY
  5
6A
102
{ACAD_REACTORS
330
9
102
}
330
9
100
AcDbDictionary
281
     1
  0
DICTIONARY
  5
66
102
{ACAD_REACTORS
330
9
102
}
330
9
100
AcDbDictionary
281
     1
  0
DICTIONARY
  5
52
102
{ACAD_REACTORS
330
9
102
}
330
9
100
AcDbDictionary
281
     1
  3
Layout1
350
58
  3
Model
350
51
  0
DICTIONARY
  5
69
102
{ACAD_REACTORS
330
9
102
}
330
9
100
AcDbDictionary
281
     1
  0
DICTIONARY
  5
67
102
{ACAD_REACTORS
330
9
102
}
330
9
100
AcDbDictionary
281
     1
  3
STANDARD
350
6B
  0
DICTIONARY
  5
68
102
{ACAD_REACTORS
330
9
102
}
330
9
100
AcDbDictionary
281
     1
  0
ACDBDICTIONARYWDFLT
  5
8
102
{ACAD_REACTORS
330
9
102
}
330
9
100
AcDbDictionary
281
     1
  3
Normal
350
7
100
AcDbDictionaryWithDefault
340
7
  0
DICTIONARY
  5
71
102
{ACAD_REACTORS
330
9
102
}
330
9
100
AcDbDictionary
281
     1
  3
COLORDICT
350
73
  3
MATERIALDICT
350
72
  0
DICTIONARY
  5
6D
102
{ACAD_REACTORS
330
9
102
}
330
9
100
AcDbDictionary
281
     1
  3
DIMASSOC
350
6F
  3
HIDETEXT
350
6E
  3
PROJECTNAME
350
70
  0
XRECORD
  5
4
102
{ACAD_REACTORS
330
3
102
}
330
3
100
AcDbXrecord
280
     1
340
2
  0
XRECORD
  5
55
102
{ACAD_REACTORS
330
54
102
}
330
54
100
AcDbXrecord
280
     1
340
53
  0
LAYOUT
  5
58
102
{ACAD_XDICTIONARY
360
76
102
}
102
{ACAD_REACTORS
330
52
102
}
330
52
100
AcDbPlotSettings
  1

  2
Fax
  4

  6

 40
0.0
 41
0.0
 42
0.0
 43
0.0
 44
0.0
 45
0.0
 46
0.0
 47
0.0
 48
0.0
 49
0.0
140
0.0
141
0.0
142
1.0
143
1.0
 70
   688
 72
     0
 73
     0
 74
     5
  7
Default R14 pen assignments.ctb
 75
    16
147
1.0
148
0.0
149
0.0
100
AcDbLayout
  1
Layout1
 70
     1
 71
     1
 10
0.0
 20
0.0
 11
12.0
 21
9.0
 12
0.1093756556510927
 22
0.0
 32
0.0
 14
1.000000000000000E+20
 24
1.000000000000000E+20
 34
1.000000000000000E+20
 15
-1.000000000000000E+20
 25
-1.000000000000000E+20
 35
-1.000000000000000E+20
146
0.0
 13
0.0
 23
0.0
 33
0.0
 16
1.0
 26
0.0
 36
0.0
 17
0.0
 27
1.0
 37
0.0
 76
     0
330
53
  0
LAYOUT
  5
51
102
{ACAD_XDICTIONARY
360
74
102
}
102
{ACAD_REACTORS
330
52
102
}
330
52
100
AcDbPlotSettings
  1

  2
Fax
  4

  6

 40
0.0
 41
0.0
 42
0.0
 43
0.0
 44
0.0
 45
0.0
 46
0.0
 47
0.0
 48
0.0
 49
0.0
140
0.0
141
0.0
142
1.0
143
1.0
 70
  1712
 72
     0
 73
     0
 74
     0
  7
Default R14 pen assignments.ctb
 75
     0
147
1.0
148
0.0
149
0.0
100
AcDbLayout
  1
Model
 70
     1
 71
     0
 10
0.0
 20
0.0
 11
12.0
 21
9.0
 12
0.0
 22
0.0
 32
0.0
 14
0.0
 24
0.0
 34
0.0
 15
0.0
 25
0.0
 35
0.0
146
0.0
 13
0.0
 23
0.0
 33
0.0
 16
1.0
 26
0.0
 36
0.0
 17
0.0
 27
1.0
 37
0.0
 76
     0
330
2
  0
MLINESTYLE
  5
6B
102
{ACAD_REACTORS
330
67
102
}
330
67
100
AcDbMlineStyle
  2
STANDARD
 70
     0
  3

 62
   256
 51
90.0
 52
90.0
 71
     2
 49
0.5
 62
   256
  6
BYLAYER
 49
-0.5
 62
   256
  6
BYLAYER
  0
ACDBPLACEHOLDER
  5
7
102
{ACAD_REACTORS
330
8
102
}
330
8
  0
XRECORD
  5
73
102
{ACAD_REACTORS
330
71
102
}
330
71
100
AcDbXrecord
280
     1
340
6A
  0
XRECORD
  5
72
102
{ACAD_REACTORS
330
71
102
}
330
71
100
AcDbXrecord
280
     1
340
69
  0
DICTIONARYVAR
  5
6F
102
{ACAD_REACTORS
330
6D
102
}
330
6D
100
DictionaryVariables
280
     0
  1
1
  0
DICTIONARYVAR
  5
6E
102
{ACAD_REACTORS
330
6D
102
}
330
6D
100
DictionaryVariables
280
     0
  1
1
  0
DICTIONARYVAR
  5
70
102
{ACAD_REACTORS
330
6D
102
}
330
6D
100
DictionaryVariables
280
     0
  1

  0
DICTIONARY
  5
76
330
58
100
AcDbDictionary
280
     1
281
     1
  3
ACAD_XREC_ROUNDTRIP
360
77
  0
DICTIONARY
  5
74
330
51
100
AcDbDictionary
280
     1
281
     1
  3
ACAD_XREC_ROUNDTRIP
360
75
  0
XRECORD
  5
77
102
{ACAD_REACTORS
330
76
102
}
330
76
100
AcDbXrecord
280
     1
102
SHADEPLOT
 70
     0
102
SHADEPLOTRESLEVEL
 70
     2
102
SHADEPLOTCUSTOMDPI
 70
   300
  0
XRECORD
  5
75
102
{ACAD_REACTORS
330
74
102
}
330
74
100
AcDbXrecord
280
     1
102
SHADEPLOT
 70
     0
102
SHADEPLOTRESLEVEL
 70
     2
102
SHADEPLOTCUSTOMDPI
 70
   300
  0
ENDSEC
  0
EOF
